# xmcd CD database file
#
# Track frame offsets:
#	150
#	16596
#	33949
#	49862
#	63885
#	85387
#	100953
#	119672
#	140055
#
# Disc length: 2403 seconds
#
# Revision: 0
# Processed by: cddbd v1.5.2PL0 Copyright (c) Steve Scherf et al.
# Submitted via: CDex 1.60beta1-cs1
#
DISCID=75096109
DTITLE=TIM HAIN - FIRSTLIGHT
DYEAR=2006
DGENRE=New Age
TTITLE0=Whole World Blind
TTITLE1=Celebrate
TTITLE2=Oh Friend
TTITLE3=The Answer
TTITLE4=Firstlight
TTITLE5=Long As I Got Life
TTITLE6=Thank You So Much
TTITLE7=City of Music
TTITLE8=Be Still - Movement Is Tranquility
EXTD=YEAR: 2006
EXTT0=
EXTT1=
EXTT2=
EXTT3=
EXTT4=
EXTT5=
EXTT6=
EXTT7=
EXTT8=
PLAYORDER=
